<svg width="200" height="65" viewBox="0 0 200 65" fill="none" xmlns="http://www.w3.org/2000/svg">
<path d="M5.412 20C1.896 20 0 17.688 0 13.28H2.528C2.528 16.436 3.38 17.852 5.496 17.852C7.392 17.852 8.296 16.708 8.296 14.884C8.296 12.736 7.004 11.944 5.096 10.884C2.996 9.716 0.576 8.652 0.576 5.008C0.576 1.28 2.996 0 5.6 0C8.676 0 10.6 1.74 10.6 5.496H8.2C8.2 3.32 7.432 2.124 5.616 2.124C4.132 2.124 2.896 2.924 2.896 4.924C2.896 7.128 4.544 7.944 6.388 8.872C8.6 10.04 10.744 11.156 10.744 14.64C10.744 18.124 8.548 20 5.412 20Z" fill="#325776"/>
<path d="M28.436 10C28.436 16.424 27.196 20 22.436 20C17.676 20 16.436 16.4 16.436 10C16.436 3.6 17.676 0 22.436 0C27.196 0 28.436 3.6 28.436 10ZM26 10.476C26 5.716 25.808 2.284 22.456 2.284C19.104 2.284 18.884 5.688 18.884 9.524C18.884 14.284 19.076 17.716 22.456 17.716C25.836 17.716 26 14.312 26 10.476Z" fill="#325776"/>
<path d="M45.904 0.463989V13.632C45.904 17.444 44.34 20 40.304 20C36.268 20 34.612 17.472 34.612 13.632V0.463989H36.948V13.468C36.948 16.136 37.772 17.824 40.408 17.824C42.856 17.824 43.608 16.3 43.608 13.796V0.463989H45.904Z" fill="#325776"/>
<path d="M64.204 2.55999H59.096V19.512H56.732V2.55999H51.62V0.463989H64.204V2.55999Z" fill="#325776"/>
<path d="M81.84 19.512H79.476V10.968H72.4V19.512H70.036V0.463989H72.4V8.86399H79.46V0.463989H81.824L81.84 19.512Z" fill="#325776"/>
<path d="M104.68 20C99.648 20 98.88 15.456 98.88 9.852C98.88 4.248 99.732 0 104.9 0C108.772 0 110.064 2.42 110.176 6.448H107.672C107.672 4.164 107.372 2.176 104.844 2.176C101.408 2.176 101.328 5.776 101.328 9.496C101.328 14.296 101.328 17.796 104.872 17.796C107.124 17.796 107.812 16.3 107.812 12.816H110.312C110.312 17.308 108.72 20 104.68 20Z" fill="#325776"/>
<path d="M128 10C128 16.424 126.764 20 122 20C117.236 20 116 16.4 116 10C116 3.6 117.236 0 122 0C126.764 0 128 3.6 128 10ZM125.552 10.464C125.552 5.704 125.36 2.272 122.008 2.272C118.656 2.272 118.436 5.676 118.436 9.512C118.436 14.272 118.628 17.704 122.008 17.704C125.388 17.704 125.544 14.312 125.544 10.476L125.552 10.464Z" fill="#325776"/>
<path d="M145.46 0.463989V13.632C145.46 17.444 143.896 20 139.86 20C135.824 20 134.172 17.472 134.172 13.632V0.463989H136.508V13.468C136.508 16.136 137.332 17.824 139.968 17.824C142.416 17.824 143.168 16.3 143.168 13.796V0.463989H145.46Z" fill="#325776"/>
<path d="M164.212 19.512H161.812L154.704 4.73599V19.512H152.424V0.463989H155.256L161.932 14.832V0.463989H164.212V19.512Z" fill="#325776"/>
<path d="M182.644 2.55999H177.536V19.512H175.172V2.55999H170.06V0.463989H182.644V2.55999Z" fill="#325776"/>
<path d="M195.028 19.512H192.608V12.08L187.636 0.47998H190.3L193.928 10.056L197.528 0.47998H200L195.028 12.08V19.512Z" fill="#325776"/>
<path d="M115.088 31.332H111.78V64.668H132.196V61.668H115.088V31.332Z" fill="#54CBC5"/>
<path d="M132.196 34.332H149.32V64.668H152.676V36.532V34.332V31.332H132.196V34.332Z" fill="#54CBC5"/>
<path d="M164.212 31.332H154.952V34.332H164.212V31.332Z" fill="#54CBC5"/>
<path d="M196.648 31.332V46.332H178.436V31.332H175.128V64.668H178.436V49.428H196.648V64.668H200V31.332H196.648Z" fill="#54CBC5"/>
<path d="M83.308 31.332L69.748 64.668H73.388L77.124 55.236H93.324L97.06 64.668H100.848L87.248 31.332H83.308ZM78.324 52.236L85.224 34.8L92.132 52.228L78.324 52.236Z" fill="#54CBC5"/>
<path d="M40.4 49.332H56.216V46.284H40.4V34.332H57.892V31.332H37.096V64.668H58.804V61.668H40.4V49.332Z" fill="#54CBC5"/>
<path d="M21.516 46.332H3.308V31.332H0V64.668H3.308V49.428H21.516V64.668H24.872V31.332H21.516V46.332Z" fill="#54CBC5"/>
<path d="M127.8 46.676C128.428 46.3615 129.083 46.1019 129.756 45.9C131.685 45.2119 133.776 45.124 135.756 45.648C135.913 45.0125 136.016 44.3649 136.064 43.712C133.431 43.065 130.657 43.3069 128.176 44.4L127.5 44.688L127.592 45.416C127.644 45.856 127.712 46.268 127.8 46.676Z" fill="#325776"/>
<path d="M138.172 44.4C137.792 44.24 137.416 44.1 137.04 43.976C136.98 44.6506 136.866 45.3194 136.7 45.976C136.494 47.1497 136.088 48.2793 135.5 49.316C135.061 50.078 134.523 50.7787 133.9 51.4L134.124 51.596C134.552 51.9571 135.008 52.2835 135.488 52.572C137.334 50.6167 138.488 48.1099 138.772 45.436L138.864 44.708L138.172 44.4Z" fill="#325776"/>
<path d="M132.984 51.884C132.143 51.145 131.427 50.2751 130.864 49.308C130.428 48.554 130.091 47.7475 129.86 46.908C129.235 47.1104 128.628 47.3632 128.044 47.664C128.811 50.2512 130.408 52.5143 132.588 54.104L133.176 54.544L133.76 54.104C134.108 53.84 134.44 53.568 134.752 53.284C134.118 52.8768 133.526 52.4079 132.984 51.884Z" fill="#325776"/>
</svg>
